<?xml version="1.0" encoding="iso-8859-1"?>
<!-- Uploaded to: SVG Repo, www.svgrepo.com, Generator: SVG Repo Mixer Tools -->
<!DOCTYPE svg PUBLIC "-//W3C//DTD SVG 1.1//EN" "http://www.w3.org/Graphics/SVG/1.1/DTD/svg11.dtd">
<svg fill="#000000" version="1.1" id="Capa_1" xmlns="http://www.w3.org/2000/svg" xmlns:xlink="http://www.w3.org/1999/xlink" 
	 width="800px" height="800px" viewBox="0 0 929.663 929.663"
	 xml:space="preserve">
<g>
	<path d="M500.84,236.683c13.541,0,27.078-5.207,37.347-15.6c20.379-20.625,20.18-53.866-0.445-74.245L404.471,15.155
		c-9.905-9.786-23.325-15.244-37.215-15.154c-13.923,0.083-27.244,5.695-37.03,15.599L200.314,147.08
		c-20.379,20.625-20.18,53.866,0.445,74.245c20.625,20.379,53.866,20.18,74.245-0.445l40.618-41.108
		c0.021,0.464,0.028,0.927,0.062,1.394c4.178,59.008,4.668,119.832,16.633,177.931c23.938,116.232,103.705,191.961,191.489,264.024
		c47.292,38.823,79.66,94.122,98.602,151.673c9.765,29.669,14.714,77.115,17.215,107.157c2.261,27.161,25.08,47.978,52.334,47.709
		l1.061-0.011c30.229-0.298,53.811-26.211,51.305-56.336c-2.92-35.149-8.857-89.827-20.924-127.489
		c-16.283-50.821-40.016-99.463-74.767-140.245c-33.993-39.893-75.456-72.403-113.338-108.373
		c-47.091-44.713-84.977-95.161-98.005-159.719c-10.541-52.231-12.789-105.215-16.461-158.562l43.117,42.604
		C474.174,231.638,487.509,236.683,500.84,236.683z"/>
</g>
</svg>